#!OML:ASF H:\Pregnant\Project 1\Capture day 1\Session 1\femalepreg.ASF
:FULLY-SPECIFIED
:DEGREES
1316
root 5.27713 15.537 25.66 -160.243 192.77 -180.435
lowerback -17.4015 2.03611 1.58871
upperback -9.68232 2.3526 0.956741
thorax -0.577231 1.11425 0.496318
lowerneck -22.0243 -6.13567 -5.76302
upperneck 28.4161 -7.50999 2.09546
head 13.6048 -3.63528 0.425029
rclavicle -6.4605e-015 -1.35174e-014
rhumerus -34.2769 -0.53668 -80.4713
rradius 26.4205
rwrist -0.273785
rhand -15.7631 -18.756
rfingers 7.12502
rthumb 10.4287 -48.4773
lclavicle -6.4605e-015 -1.35174e-014
lhumerus -45.2073 7.55877 70.7125
lradius 36.7079
lwrist 48.6331
lhand -29.9144 -7.02458
lfingers 7.12502
lthumb -3.23477 22.9306
rfemur -43.2379 17.6983 14.6313
rtibia 37.2268
rfoot -9.45527 -15.0236
rtoes -6.4699
lfemur -15.3391 -13.6826 -17.7211
ltibia 13.1793
lfoot -12.6911 7.50523
ltoes -25.9053
1317
root 5.24728 15.5286 25.7004 -160.494 192.518 -180.759
lowerback -17.0469 2.02494 2.37138
upperback -9.65819 2.23423 1.17035
thorax -0.717461 1.02886 0.250317
lowerneck -22.153 -5.96935 -5.61889
upperneck 28.581 -7.24616 1.87076
head 13.6714 -3.53481 0.357388
rclavicle -3.02153e-014 -7.95139e-016
rhumerus -34.233 -1.35971 -79.9816
rradius 25.7017
rwrist -0.259494
rhand -16.6206 -19.4082
rfingers 7.12502
rthumb 9.60145 -49.1695
lclavicle -3.02153e-014 -7.95139e-016
lhumerus -45.4105 7.79176 70.921
lradius 36.5657
lwrist 48.8987
lhand -29.466 -6.8524
lfingers 7.12502
lthumb -2.80173 23.1089
rfemur -42.4988 17.6424 15.3369
rtibia 37.0709
rfoot -9.60688 -15.0993
rtoes -6.47375
lfemur -15.7347 -13.7094 -17.3653
ltibia 14.8411
lfoot -13.2812 7.59025
ltoes -26.6731
1318
root 5.21809 15.5197 25.7399 -160.742 192.262 -181.112
lowerback -16.6735 2.01097 3.18306
upperback -9.63944 2.11578 1.38703
thorax -0.877204 0.941161 -0.00803682
lowerneck -22.2538 -5.80278 -5.48665
upperneck 28.7237 -6.9843 1.66505
head 13.7258 -3.43464 0.299627
rclavicle 8.48811e-014 3.97569e-014
rhumerus -34.2401 -2.06957 -79.5279
rradius 25.0771
rwrist -0.322845
rhand -17.4388 -19.9212
rfingers 7.12502
rthumb 8.81192 -49.7173
lclavicle 8.48811e-014 3.97569e-014
lhumerus -45.5806 7.91432 71.1892
lradius 36.331
lwrist 49.101
lhand -28.9897 -6.68173
lfingers 7.12502
lthumb -2.34175 23.2852
rfemur -41.761 17.5753 16.0702
rtibia 36.9152
rfoot -9.75853 -15.1601
rtoes -6.51289
lfemur -16.1329 -13.6981 -16.9789
ltibia 16.5083
lfoot -13.8807 7.6179
ltoes -27.2845
1319
root 5.18967 15.5102 25.7786 -160.989 192.002 -181.478
lowerback -16.2863 1.9907 4.00967
upperback -9.61746 1.99512 1.60335
thorax -1.04531 0.850575 -0.274163
lowerneck -22.3801 -5.64163 -5.34412
upperneck 28.8557 -6.73344 1.4641
head 13.7825 -3.33733 0.23923
rclavicle 3.61788e-014 6.20208e-014
rhumerus -34.2775 -2.65349 -79.1181
rradius 24.548
rwrist -0.473921
rhand -18.1612 -20.3339
rfingers 7.12502
rthumb 8.11474 -50.158
lclavicle 3.61788e-014 6.20208e-014
lhumerus -45.7128 7.92464 71.5264
lradius 36.027
lwrist 49.2397
lhand -28.5108 -6.50214
lfingers 7.12502
lthumb -1.87925 23.4693
rfemur -41.0439 17.5032 16.8091
rtibia 36.7905
rfoot -9.93027 -15.219
rtoes -6.5307
lfemur -16.5272 -13.6549 -16.5771
ltibia 18.1664
lfoot -14.4676 7.59527
ltoes -27.7803
1320
root 5.16233 15.4944 25.8157 -161.231 191.744 -181.854
lowerback -15.8994 1.96618 4.84476
upperback -9.59715 1.87551 1.81625
thorax -1.21993 0.75879 -0.546542
lowerneck -22.4994 -5.48709 -5.18574
upperneck 28.9656 -6.49794 1.26343
head 13.8295 -3.24527 0.17373
rclavicle -1.19271e-014 -3.65764e-014
rhumerus -34.3561 -3.1026 -78.7586
rradius 24.1136
rwrist -0.732256
rhand -18.7894 -20.6186
rfingers 7.12502
rthumb 7.50844 -50.4653
lclavicle -1.19271e-014 -3.65764e-014
lhumerus -45.8217 7.81143 71.9376
lradius 35.6691
lwrist 49.3101
lhand -28.0509 -6.31066
lfingers 7.12502
lthumb -1.43503 23.6643
rfemur -40.3939 17.4354 17.5389
rtibia 36.7443
rfoot -10.1327 -15.2812
rtoes -6.5024
lfemur -16.8593 -13.4627 -16.212
ltibia 19.8061
lfoot -15.0072 7.62529
ltoes -29.2013
1321
root 5.13609 15.4734 25.8515 -161.463 191.491 -182.23
lowerback -15.5236 1.93531 5.67612
upperback -9.57698 1.75485 2.02694
thorax -1.39421 0.665394 -0.816896
lowerneck -22.6024 -5.33806 -5.01444
upperneck 29.0469 -6.27532 1.06214
head 13.8618 -3.15787 0.104071
rclavicle 4.96962e-016 4.37326e-014
rhumerus -34.4673 -3.41477 -78.4456
rradius 23.7744
rwrist -1.06766
rhand -19.2768 -20.8413
rfingers 7.12502
rthumb 7.03791 -50.7043
lclavicle 4.96962e-016 4.37326e-014
lhumerus -45.9143 7.59327 72.4209
lradius 35.272
lwrist 49.294
lhand -27.6124 -6.12904
lfingers 7.12502
lthumb -1.01154 23.8483
rfemur -39.825 17.3837 18.2456
rtibia 36.7912
rfoot -10.3728 -15.358
rtoes -6.40779
lfemur -17.1556 -13.1409 -15.8824
ltibia 21.4381
lfoot -15.4973 7.72719
ltoes -31.2086
1322
root 5.11096 15.4474 25.886 -161.684 191.246 -182.6
lowerback -15.1662 1.89771 6.49325
upperback -9.55352 1.63273 2.2325
thorax -1.56068 0.570856 -1.08219
lowerneck -22.7045 -5.18978 -4.83333
upperneck 29.1081 -6.05957 0.86823
head 13.8865 -3.07143 0.0345869
rclavicle 2.44505e-014 1.59028e-014
rhumerus -34.5966 -3.61041 -78.1738
rradius 23.526
rwrist -1.42476
rhand -19.582 -21.035
rfingers 7.12502
rthumb 6.74333 -50.9076
lclavicle 2.44505e-014 1.59028e-014
lhumerus -45.9757 7.28736 72.9701
lradius 34.8261
lwrist 49.1706
lhand -27.2188 -5.9651
lfingers 7.12502
lthumb -0.631424 24.0137
rfemur -39.3416 17.3457 18.923
rtibia 36.9325
rfoot -10.6422 -15.451
rtoes -6.28679
lfemur -17.4366 -12.7039 -15.5925
ltibia 23.0798
lfoot -15.9132 7.93738
ltoes -33.7252
1323
root 5.08674 15.419 25.9195 -161.886 191.014 -182.958
lowerback -14.8396 1.85179 7.28251
upperback -9.52505 1.50644 2.43727
thorax -1.7111 0.474972 -1.33037
lowerneck -22.7898 -5.0388 -4.64859
upperneck 29.1476 -5.84235 0.676153
head 13.8992 -2.98401 -0.0338777
rclavicle 2.17669e-014 6.44062e-014
rhumerus -34.7359 -3.69152 -77.9334
rradius 23.3627
rwrist -1.76425
rhand -19.7031 -21.1837
rfingers 7.12502
rthumb 6.62648 -51.06
lclavicle 2.17669e-014 6.44062e-014
lhumerus -46.0083 6.92097 73.5785
lradius 34.3307
lwrist 48.9186
lhand -26.8625 -5.85363
lfingers 7.12502
lthumb -0.28724 24.1259
rfemur -38.9224 17.3199 19.5693
rtibia 37.121
rfoot -10.9115 -15.5597
rtoes -6.20517
lfemur -17.7633 -12.1953 -15.328
ltibia 24.7798
lfoot -16.2655 8.2218
ltoes -36.2788
1324
root 5.06305 15.392 25.9528 -162.068 190.799 -183.292
lowerback -14.5568 1.79888 8.03039
upperback -9.48702 1.37629 2.63506
thorax -1.83304 0.379117 -1.56027
lowerneck -22.8447 -4.88814 -4.46493
upperneck 29.1514 -5.6298 0.495186
head 13.8919 -2.89751 -0.0974443
rclavicle -5.20816e-014 3.18055e-015
rhumerus -34.8732 -3.68195 -77.7221
rradius 23.2716
rwrist -2.05672
rhand -19.6623 -21.2714
rfingers 7.12502
rthumb 6.66585 -51.1465
lclavicle -5.20816e-014 3.18055e-015
lhumerus -46.0043 6.5084 74.2343
lradius 33.787
lwrist 48.5193
lhand -26.518 -5.83784
lfingers 7.12502
lthumb 0.045461 24.1419
rfemur -38.5413 17.3047 20.1738
rtibia 37.3122
rfoot -11.1582 -15.6824
rtoes -6.20152
lfemur -18.1898 -11.6828 -15.0759
ltibia 26.5576
lfoot -16.5565 8.4767
ltoes -38.4
1325
root 5.03958 15.3697 25.9863 -162.227 190.604 -183.593
lowerback -14.3182 1.7369 8.72106
upperback -9.44096 1.23957 2.82723
thorax -1.92743 0.283013 -1.76236
lowerneck -22.8926 -4.7361 -4.27452
upperneck 29.1276 -5.41976 0.320208
head 13.8722 -2.81052 -0.159718
rclavicle 5.96354e-016 1.43125e-014
rhumerus -35.0046 -3.58773 -77.5345
rradius 23.2448
rwrist -2.28399
rhand -19.4783 -21.2936
rfingers 7.12502
rthumb 6.84347 -51.163
lclavicle 5.96354e-016 1.43125e-014
lhumerus -45.9697 6.07085 74.9247
lradius 33.206
lwrist 47.9584
lhand -26.195 -5.85532
lfingers 7.12502
lthumb 0.357367 24.1241
rfemur -38.1705 17.3021 20.7264
rtibia 37.4537
rfoot -11.3625 -15.8157
rtoes -6.26786
lfemur -18.7475 -11.1859 -14.8378
ltibia 28.4281
lfoot -16.7717 8.57801
ltoes -39.8277
1326
root 5.01612 15.3524 26.02 -162.362 190.435 -183.851
lowerback -14.1296 1.66749 9.34379
upperback -9.38858 1.09733 3.00994
thorax -1.99213 0.187932 -1.93494
lowerneck -22.9305 -4.58264 -4.07723
upperneck 29.0809 -5.21226 0.150112
head 13.8417 -2.72321 -0.221147
rclavicle 4.67144e-014 -3.18055e-014
rhumerus -35.0973 -3.47673 -77.3478
rradius 23.1992
rwrist -2.4084
rhand -19.23 -21.1626
rfingers 7.12502
rthumb 7.08315 -51.0241
lclavicle 4.67144e-014 -3.18055e-014
lhumerus -45.9106 5.61545 75.6374
lradius 32.5936
lwrist 47.2249
lhand -25.8679 -5.90305
lfingers 7.12502
lthumb 0.673366 24.0756
rfemur -37.8128 17.3179 21.2143
rtibia 37.5417
rfoot -11.5244 -15.9605
rtoes -6.40453
lfemur -19.4354 -10.7302 -14.6135
ltibia 30.3643
lfoot -16.9519 8.47477
ltoes -40.5834
